<svg width="100" height="100" viewBox="0 0 100 100" fill="none" xmlns="http://www.w3.org/2000/svg">
<path d="M85.546 22.562C85.442 22.77 85.312 23.03 85.156 23.342C85.052 23.602 84.922 23.94 84.766 24.356C84.402 25.136 83.986 26.072 83.518 27.164C83.05 28.204 82.53 29.348 81.958 30.596C80.866 32.988 79.644 35.588 78.292 38.396C76.992 41.204 75.744 43.856 74.548 46.352C74.808 46.352 75.016 46.378 75.172 46.43C75.38 46.43 75.588 46.43 75.796 46.43C77.044 46.43 78.032 46.222 78.76 45.806C79.384 45.494 79.852 45.338 80.164 45.338C80.632 45.338 80.866 45.52 80.866 45.884C80.866 46.248 80.554 46.638 79.93 47.054C79.15 47.522 78.11 48.016 76.81 48.536C75.51 49.004 74.236 49.212 72.988 49.16C71.792 51.708 70.648 54.074 69.556 56.258C68.516 58.39 67.528 60.808 66.592 63.512C65.864 65.696 65.5 67.256 65.5 68.192C65.5 68.712 65.63 69.128 65.89 69.44C66.15 69.7 66.644 69.83 67.372 69.83C68.048 69.83 68.854 69.622 69.79 69.206C71.246 68.582 72.754 67.594 74.314 66.242C75.874 64.89 77.356 63.408 78.76 61.796C80.164 60.184 81.308 58.702 82.192 57.35C82.66 56.674 83.076 56.336 83.44 56.336C83.648 56.336 83.752 56.466 83.752 56.726C83.752 56.986 83.544 57.454 83.128 58.13C82.244 59.534 81.048 61.094 79.54 62.81C78.084 64.474 76.524 66.008 74.86 67.412C73.196 68.816 71.584 69.856 70.024 70.532C68.88 71 67.762 71.234 66.67 71.234C63.238 71.234 61.522 69.44 61.522 65.852C61.522 64.552 61.756 63.096 62.224 61.484C62.9 59.04 63.654 56.83 64.486 54.854C65.318 52.878 66.306 50.772 67.45 48.536C65.838 48.328 64.356 48.146 63.004 47.99C61.704 47.782 60.196 47.652 58.48 47.6C57.7 48.744 56.894 49.966 56.062 51.266C55.282 52.566 54.502 53.918 53.722 55.322C50.602 60.834 47.326 65.618 43.894 69.674C40.462 73.678 36.874 76.798 33.13 79.034C29.438 81.27 25.59 82.388 21.586 82.388C19.194 82.388 16.984 81.816 14.956 80.672C12.928 79.58 11.29 77.994 10.042 75.914C8.846 73.886 8.248 71.442 8.248 68.582C8.248 67.334 8.378 66.034 8.638 64.682C8.898 63.278 9.314 61.822 9.886 60.314C11.03 57.35 12.694 54.672 14.878 52.28C17.114 49.836 19.584 47.912 22.288 46.508C24.992 45.052 27.618 44.324 30.166 44.324C32.454 44.324 34.404 45.078 36.016 46.586C37.68 48.042 38.512 50.2 38.512 53.06C38.512 54.412 38.278 55.946 37.81 57.662C36.874 60.834 35.548 63.278 33.832 64.994C32.116 66.658 30.374 67.828 28.606 68.504C27.306 68.972 26.032 69.206 24.784 69.206C23.9 69.206 23.12 69.076 22.444 68.816C21.82 68.556 21.404 68.166 21.196 67.646C21.144 67.49 21.118 67.308 21.118 67.1C21.118 66.528 21.352 66.242 21.82 66.242C22.288 66.242 22.574 66.528 22.678 67.1C22.73 67.256 22.912 67.438 23.224 67.646C23.588 67.802 24.108 67.88 24.784 67.88C25.2 67.88 25.642 67.828 26.11 67.724C26.578 67.62 27.072 67.464 27.592 67.256C28.944 66.684 30.322 65.67 31.726 64.214C33.182 62.706 34.326 60.522 35.158 57.662C35.678 55.946 35.938 54.334 35.938 52.826C35.938 50.434 35.34 48.64 34.144 47.444C32.948 46.248 31.544 45.65 29.932 45.65C27.436 45.65 25.226 46.404 23.302 47.912C21.43 49.42 19.792 51.37 18.388 53.762C16.984 56.102 15.814 58.546 14.878 61.094C13.578 64.63 12.928 67.854 12.928 70.766C12.928 73.938 13.682 76.434 15.19 78.254C16.698 80.074 18.882 80.984 21.742 80.984C24.81 80.984 27.722 80.256 30.478 78.8C33.286 77.344 35.964 75.368 38.512 72.872C41.06 70.376 43.478 67.542 45.766 64.37C48.054 61.146 50.238 57.766 52.318 54.23C53.046 53.034 53.748 51.89 54.424 50.798C55.1 49.654 55.776 48.588 56.452 47.6C54.58 47.6 52.786 47.73 51.07 47.99C49.406 48.198 47.924 48.744 46.624 49.628C45.324 50.46 44.258 51.838 43.426 53.762C43.27 54.022 43.088 54.308 42.88 54.62C42.724 54.88 42.516 55.036 42.256 55.088C42.204 55.088 42.152 55.114 42.1 55.166C42.1 55.166 42.074 55.166 42.022 55.166C41.658 55.166 41.476 54.958 41.476 54.542C41.476 54.438 41.528 54.23 41.632 53.918C41.736 53.606 41.918 53.216 42.178 52.748C44.206 49.264 46.65 46.976 49.51 45.884C52.422 44.74 55.412 44.194 58.48 44.246C61.704 39.566 64.746 35.744 67.606 32.78C70.466 29.816 73.066 27.502 75.406 25.838C77.746 24.174 79.774 23.03 81.49 22.406C83.206 21.73 84.48 21.392 85.312 21.392C85.572 21.392 85.702 21.522 85.702 21.782C85.702 22.094 85.65 22.354 85.546 22.562ZM81.88 24.434C81.412 24.434 80.788 24.616 80.008 24.98C79.28 25.344 78.578 25.76 77.902 26.228C77.226 26.644 76.732 26.956 76.42 27.164C74.444 28.62 72.078 30.752 69.322 33.56C66.618 36.316 63.68 39.93 60.508 44.402C62.224 44.454 63.706 44.61 64.954 44.87C66.202 45.078 67.554 45.312 69.01 45.572C70.622 42.452 72.286 39.566 74.002 36.914C75.718 34.262 77.278 31.87 78.682 29.738C80.138 27.606 81.204 25.838 81.88 24.434Z" fill="white"/>
<path d="M79.968 78.536C79.0293 78.536 78.4747 78.12 78.304 77.288C78.2827 77.16 78.2613 77.032 78.24 76.904C78.24 76.776 78.24 76.6373 78.24 76.488C78.24 75.656 78.4107 74.7067 78.752 73.64C79.0933 72.552 79.52 71.5173 80.032 70.536C80.7147 69.2347 81.1947 68.04 81.472 66.952C81.7707 65.864 81.92 64.8933 81.92 64.04C81.92 62.8667 81.7067 61.896 81.28 61.128C80.8747 60.36 80.352 59.7947 79.712 59.432C79.072 59.048 78.4107 58.8667 77.728 58.888C76.7253 58.9093 75.808 59.144 74.976 59.592C74.144 60.04 73.4187 60.6267 72.8 61.352C72.1813 62.0773 71.7013 62.888 71.36 63.784C71.0187 64.6587 70.848 65.544 70.848 66.44C70.848 66.8667 70.9013 67.3253 71.008 67.816C71.1787 68.584 71.5093 69.1813 72 69.608C72.512 70.0133 73.0453 70.216 73.6 70.216C74.2187 70.216 74.7733 69.9387 75.264 69.384C75.776 68.808 76.0107 67.912 75.968 66.696C75.968 66.5893 76 66.504 76.064 66.44C76.128 66.3547 76.192 66.312 76.256 66.312C76.3627 66.312 76.416 66.4187 76.416 66.632C76.48 67.592 76.3307 68.4027 75.968 69.064C75.6053 69.7253 75.1253 70.2267 74.528 70.568C73.9307 70.9093 73.3013 71.08 72.64 71.08C71.872 71.08 71.1573 70.8453 70.496 70.376C69.856 69.8853 69.4187 69.1493 69.184 68.168C69.1413 67.9333 69.1093 67.7093 69.088 67.496C69.0667 67.2613 69.056 67.0373 69.056 66.824C69.056 65.7573 69.28 64.7227 69.728 63.72C70.1973 62.7173 70.8373 61.8213 71.648 61.032C72.48 60.2213 73.44 59.5813 74.528 59.112C75.6373 58.6427 76.8213 58.408 78.08 58.408C79.2107 58.408 80.224 58.6533 81.12 59.144C82.0373 59.6133 82.752 60.3067 83.264 61.224C83.7973 62.12 84.064 63.208 84.064 64.488C84.064 65.3413 83.9253 66.2693 83.648 67.272C83.392 68.2533 82.976 69.3093 82.4 70.44C82.1013 71.016 81.7707 71.7093 81.408 72.52C81.0667 73.3093 80.768 74.088 80.512 74.856C80.2773 75.624 80.16 76.2747 80.16 76.808C80.16 77.448 80.4053 77.768 80.896 77.768C81.1947 77.768 81.5253 77.672 81.888 77.48C82.2507 77.3093 82.592 77.1173 82.912 76.904C83.232 76.6693 83.456 76.488 83.584 76.36C84.48 75.6133 85.44 74.6747 86.464 73.544C87.5093 72.392 88.5227 71.112 89.504 69.704C90.4853 68.2747 91.3493 66.7813 92.096 65.224C92.864 63.6453 93.4187 62.0667 93.76 60.488C93.8027 60.3173 93.8347 60.136 93.856 59.944C93.8773 59.752 93.888 59.5493 93.888 59.336C93.888 58.8453 93.824 58.3653 93.696 57.896C93.568 57.4053 93.344 57 93.024 56.68C92.7253 56.3387 92.2987 56.168 91.744 56.168C91.6587 56.168 91.5733 56.1787 91.488 56.2C91.4027 56.2 91.3067 56.2107 91.2 56.232C91.0293 56.2747 90.848 56.36 90.656 56.488C90.4853 56.5947 90.3573 56.648 90.272 56.648C90.1653 56.6267 90.08 56.5733 90.016 56.488C89.9733 56.4027 89.9947 56.3173 90.08 56.232C90.272 55.9973 90.6453 55.8267 91.2 55.72C91.3067 55.6773 91.4133 55.656 91.52 55.656C91.6267 55.656 91.7333 55.656 91.84 55.656C92.3947 55.656 92.9493 55.7947 93.504 56.072C94.08 56.3493 94.56 56.7653 94.944 57.32C95.3493 57.8747 95.552 58.5573 95.552 59.368C95.552 59.496 95.552 59.624 95.552 59.752C95.552 59.88 95.5307 60.0187 95.488 60.168C95.2533 61.5547 94.752 63.016 93.984 64.552C93.2373 66.088 92.3307 67.592 91.264 69.064C90.1973 70.536 89.0667 71.912 87.872 73.192C86.6987 74.472 85.5573 75.5493 84.448 76.424C83.5307 77.1493 82.688 77.6827 81.92 78.024C81.1733 78.3653 80.5227 78.536 79.968 78.536Z" fill="#FF6611"/>
</svg>
