<svg width="100" height="100" viewBox="0 0 100 100" fill="none" xmlns="http://www.w3.org/2000/svg">
<g clip-path="url(#clip0_1_3)">
<path d="M46.4492 21.0537C46.627 21.0537 46.8301 21.2695 47.0586 21.7012C47.2871 22.1328 47.5029 22.6406 47.7061 23.2246C47.9346 23.7832 48.1377 24.3545 48.3154 24.9385C48.5186 25.4971 48.6709 25.916 48.7725 26.1953C49.3311 27.8457 49.9531 29.7119 50.6387 31.7939C51.3242 33.876 52.0479 36.0977 52.8096 38.459C53.5967 40.8203 54.4092 43.2832 55.2471 45.8477C56.1104 48.3867 56.9609 50.9385 57.7988 53.5029C58.6621 56.042 59.5127 58.5557 60.3506 61.0439C61.1885 63.5322 61.9883 65.9062 62.75 68.166C63.5117 70.4004 64.2227 72.4697 64.8828 74.374C65.5684 76.2529 66.1777 77.8906 66.7109 79.2871C67.3203 80.9375 67.917 82.2578 68.501 83.248C69.085 84.2383 69.707 85.0254 70.3672 85.6094C71.0273 86.1934 71.751 86.625 72.5381 86.9043C73.3506 87.1836 74.2773 87.4375 75.3184 87.666C76.0801 87.8184 76.4609 88.0977 76.4609 88.5039C76.4609 88.7832 76.3213 88.9736 76.042 89.0752C75.7627 89.1768 75.4453 89.2275 75.0898 89.2275C74.5312 89.2275 73.8203 89.2148 72.957 89.1895C72.0938 89.1641 71.1035 89.1514 69.9863 89.1514C69.0977 89.1514 68.1328 89.1641 67.0918 89.1895C66.0762 89.2402 65.0225 89.3037 63.9307 89.3799C62.2295 89.5068 60.6553 89.71 59.208 89.9893C57.7607 90.2939 56.4531 90.5859 55.2852 90.8652C54.1172 91.1699 53.0889 91.4365 52.2002 91.665C51.3369 91.8936 50.6387 92.0078 50.1055 92.0078C49.8262 92.0078 49.5977 91.9316 49.4199 91.7793C49.2676 91.6523 49.1914 91.4746 49.1914 91.2461C49.1914 90.916 49.2803 90.6494 49.458 90.4463C49.6357 90.2432 49.9785 90.0654 50.4863 89.9131C50.6895 89.8623 50.9814 89.7861 51.3623 89.6846C51.7432 89.583 52.1621 89.4688 52.6191 89.3418C53.0762 89.2148 53.5459 89.0625 54.0283 88.8848C54.5361 88.7324 54.9932 88.5547 55.3994 88.3516C55.9072 88.0723 56.3643 87.7041 56.7705 87.2471C57.1768 86.79 57.3799 86.0918 57.3799 85.1523C57.3799 84.9492 57.3545 84.6699 57.3037 84.3145C57.2783 83.959 57.2275 83.6416 57.1514 83.3623C56.6943 81.585 56.2246 79.7822 55.7422 77.9541C55.2598 76.126 54.7773 74.3867 54.2949 72.7363C53.8125 71.0859 53.3555 69.5625 52.9238 68.166C52.4922 66.7695 52.0986 65.627 51.7432 64.7383C51.1592 63.2656 50.4863 62.1484 49.7246 61.3867C48.9629 60.5996 48.125 59.9902 47.2109 59.5586C46.957 59.457 46.5381 59.292 45.9541 59.0635C45.3701 58.835 44.6719 58.5938 43.8594 58.3398C43.0723 58.0605 42.2217 57.7686 41.3076 57.4639C40.3936 57.1592 39.4922 56.8672 38.6035 56.5879C37.7148 56.2832 36.877 56.0166 36.0898 55.7881C35.3281 55.5342 34.6934 55.3184 34.1855 55.1406C33.5762 57.0957 32.9668 59.0381 32.3574 60.9678C31.7734 62.8721 31.2275 64.6367 30.7197 66.2617C30.2373 67.8613 29.8057 69.2705 29.4248 70.4893C29.0693 71.708 28.8154 72.5967 28.6631 73.1553C28.46 73.8154 28.3203 74.4121 28.2441 74.9453C28.168 75.4785 28.1299 75.9482 28.1299 76.3545C28.1299 77.0908 28.2314 77.7129 28.4346 78.2207C28.6631 78.7031 28.9551 79.1221 29.3105 79.4775C29.666 79.8076 30.0723 80.0996 30.5293 80.3535C31.0117 80.582 31.5068 80.8105 32.0146 81.0391C32.4463 81.2422 32.8271 81.4707 33.1572 81.7246C33.4873 81.9531 33.6523 82.2451 33.6523 82.6006C33.6523 82.8291 33.5508 83.0322 33.3477 83.21C33.1699 83.3623 32.8779 83.4385 32.4717 83.4385C32.04 83.4385 31.4941 83.3369 30.834 83.1338C30.1738 82.9307 29.4375 82.6768 28.625 82.3721C27.8379 82.0674 27 81.75 26.1113 81.4199C25.2227 81.0645 24.334 80.7471 23.4453 80.4678C22.7344 80.2646 21.998 80.0869 21.2363 79.9346C20.4746 79.7568 19.7383 79.6172 19.0273 79.5156C18.3164 79.4141 17.6689 79.3379 17.085 79.2871C16.5264 79.2109 16.0947 79.1602 15.79 79.1348C15.1553 79.084 14.6982 78.9951 14.4189 78.8682C14.1396 78.7412 14 78.5 14 78.1445C14 77.8906 14.0762 77.6875 14.2285 77.5352C14.4062 77.3574 14.6982 77.2686 15.1045 77.2686C15.2568 77.2686 15.5234 77.2812 15.9043 77.3066C16.3105 77.332 16.7676 77.3447 17.2754 77.3447C18.4941 77.3447 19.5098 77.2686 20.3223 77.1162C21.1348 76.9639 21.8203 76.7227 22.3789 76.3926C22.9375 76.0625 23.3945 75.6562 23.75 75.1738C24.1309 74.666 24.4736 74.0693 24.7783 73.3838C25.083 72.7236 25.4512 71.8477 25.8828 70.7559C26.3145 69.6387 26.7715 68.4326 27.2539 67.1377C27.7617 65.8174 28.2695 64.459 28.7773 63.0625C29.2852 61.6406 29.7549 60.3076 30.1865 59.0635C30.6436 57.7939 31.0371 56.6768 31.3672 55.7119C31.6973 54.7217 31.9385 53.9854 32.0908 53.5029C32.2939 52.8428 32.5732 51.9414 32.9287 50.7988C33.3096 49.6309 33.7285 48.3359 34.1855 46.9141C34.6426 45.4922 35.0996 44.0195 35.5566 42.4961C36.0391 40.9473 36.4707 39.4746 36.8516 38.0781C37.2578 36.6562 37.5752 35.374 37.8037 34.2314C38.0576 33.0635 38.1846 32.1494 38.1846 31.4893C38.1846 30.9814 38.0449 30.5625 37.7656 30.2324C37.4863 29.877 37.0293 29.6992 36.3945 29.6992C35.8359 29.6992 35.2012 29.7373 34.4902 29.8135C33.8047 29.8896 33.1064 29.9658 32.3955 30.042C31.6846 30.1182 30.9863 30.1943 30.3008 30.2705C29.6406 30.3467 29.0693 30.3848 28.5869 30.3848C27.6475 30.3848 27.1777 30.0547 27.1777 29.3945C27.1777 28.7852 27.6221 28.4424 28.5107 28.3662C29.1201 28.3408 29.8057 28.2773 30.5674 28.1758C31.3545 28.0742 32.1797 27.9346 33.043 27.7568C33.9062 27.5791 34.7695 27.3633 35.6328 27.1094C36.5215 26.8301 37.3721 26.5 38.1846 26.1191C39.4795 25.5352 40.584 24.9385 41.498 24.3291C42.4121 23.7197 43.1865 23.1738 43.8213 22.6914C44.4814 22.209 45.0146 21.8154 45.4209 21.5107C45.8525 21.2061 46.1953 21.0537 46.4492 21.0537ZM34.833 53.084C35.6201 53.3633 36.623 53.7188 37.8418 54.1504C39.0859 54.5566 40.3428 54.9629 41.6123 55.3691C42.8818 55.75 44.0498 56.0801 45.1162 56.3594C46.208 56.6387 46.9951 56.7783 47.4775 56.7783C47.7822 56.7783 48.0488 56.6768 48.2773 56.4736C48.5059 56.2451 48.6201 55.9023 48.6201 55.4453C48.6201 55.0645 48.5059 54.3789 48.2773 53.3887C48.0488 52.373 47.7568 51.2305 47.4014 49.9609C47.0713 48.666 46.7031 47.3203 46.2969 45.9238C45.8906 44.502 45.5098 43.1943 45.1543 42.001C44.7988 40.8076 44.4941 39.8174 44.2402 39.0303C44.0117 38.2178 43.8848 37.7607 43.8594 37.6592C43.7578 37.3545 43.6182 36.9229 43.4404 36.3643C43.2881 35.7803 43.1104 35.209 42.9072 34.6504C42.7295 34.0918 42.5391 33.6094 42.3359 33.2031C42.1582 32.7969 42.0186 32.5938 41.917 32.5938C41.8154 32.5938 41.6758 32.7334 41.498 33.0127C41.3457 33.292 41.1807 33.6348 41.0029 34.041C40.8252 34.4219 40.6475 34.8408 40.4697 35.2979C40.292 35.7549 40.1523 36.1738 40.0508 36.5547L34.833 53.084Z" fill="white"/>
<path d="M71.2402 51.791C71.582 51.791 71.7529 51.8968 71.7529 52.1084C71.7529 52.2386 71.6878 52.3607 71.5576 52.4746C71.4274 52.5723 71.1263 52.7106 70.6543 52.8896C70.4427 52.971 70.1742 53.0768 69.8486 53.207C69.5231 53.321 69.1813 53.4593 68.8232 53.6221C68.4652 53.7686 68.1071 53.9313 67.749 54.1104C67.391 54.2731 67.0736 54.4359 66.7969 54.5986C66.5039 54.7777 66.276 54.9893 66.1133 55.2334C65.9668 55.4613 65.8936 55.7461 65.8936 56.0879C65.8936 56.4134 65.9668 56.8529 66.1133 57.4062C66.276 57.9596 66.4795 58.5781 66.7236 59.2617C66.984 59.9453 67.2852 60.6777 67.627 61.459C67.9688 62.224 68.3187 62.9889 68.6768 63.7539C69.0348 64.5189 69.3929 65.2594 69.751 65.9756C70.109 66.6917 70.4427 67.3346 70.752 67.9043C71.11 68.6042 71.5088 69.361 71.9482 70.1748C72.404 70.9886 72.8597 71.8105 73.3154 72.6406C73.7712 73.4707 74.2269 74.2764 74.6826 75.0576C75.1383 75.8226 75.5534 76.5062 75.9277 77.1084C76.3184 77.6943 76.652 78.1663 76.9287 78.5244C77.2217 78.8825 77.4414 79.0615 77.5879 79.0615C77.7344 79.0615 77.9134 78.8825 78.125 78.5244C78.3529 78.1501 78.597 77.6862 78.8574 77.1328C79.1341 76.5632 79.4108 75.9365 79.6875 75.2529C79.9805 74.5531 80.249 73.8695 80.4932 73.2021C80.6885 72.665 80.9001 72.0221 81.1279 71.2734C81.3721 70.5085 81.5918 69.7354 81.7871 68.9541C81.9987 68.1729 82.1696 67.4323 82.2998 66.7324C82.43 66.0326 82.4951 65.471 82.4951 65.0479C82.4951 64.6735 82.4137 64.3805 82.251 64.1689C82.1045 63.9411 81.8929 63.7783 81.6162 63.6807C81.3395 63.5667 81.014 63.4935 80.6396 63.4609C80.2653 63.4284 79.8503 63.4121 79.3945 63.4121C79.0202 63.4121 78.6296 63.4202 78.2227 63.4365C77.832 63.4528 77.4577 63.4609 77.0996 63.4609C76.3672 63.4609 76.001 63.2412 76.001 62.8018C76.001 62.5739 76.0905 62.4111 76.2695 62.3135C76.4486 62.2158 76.7253 62.1426 77.0996 62.0938C77.3275 62.0775 77.7344 62.0449 78.3203 61.9961C78.9225 61.9473 79.6305 61.8577 80.4443 61.7275C81.2744 61.5973 82.1777 61.402 83.1543 61.1416C84.1309 60.8812 85.1156 60.515 86.1084 60.043C87.2803 59.4896 88.265 58.9362 89.0625 58.3828C89.8763 57.8132 90.5599 57.3005 91.1133 56.8447C91.6829 56.3727 92.1468 55.9902 92.5049 55.6973C92.863 55.4043 93.1803 55.2578 93.457 55.2578C93.7826 55.2578 93.9453 55.4206 93.9453 55.7461C93.9453 56.0065 93.7581 56.3239 93.3838 56.6982C93.0094 57.0726 92.5049 57.5609 91.8701 58.1631C91.2516 58.7653 90.5273 59.4977 89.6973 60.3604C88.8672 61.223 87.9883 62.2728 87.0605 63.5098C86.5072 64.2422 85.9538 65.113 85.4004 66.1221C84.8633 67.1312 84.3262 68.2135 83.7891 69.3691C83.252 70.5085 82.7148 71.7048 82.1777 72.958C81.6569 74.195 81.1279 75.4076 80.5908 76.5957C79.5166 78.9883 78.6296 81.0472 77.9297 82.7725C77.2461 84.4814 76.6846 85.8893 76.2451 86.9961C75.8057 88.1029 75.4639 88.9248 75.2197 89.4619C74.9756 89.9827 74.7721 90.2432 74.6094 90.2432C74.4629 90.2432 74.2676 90.0641 74.0234 89.7061C73.7793 89.3317 73.4945 88.819 73.1689 88.168C72.8434 87.5169 72.4772 86.7357 72.0703 85.8242C71.6634 84.9128 71.224 83.9036 70.752 82.7969C70.5241 82.276 70.2067 81.5192 69.7998 80.5264C69.3929 79.5335 68.9209 78.4023 68.3838 77.1328C67.863 75.8633 67.2933 74.5124 66.6748 73.0801C66.0726 71.6315 65.446 70.2074 64.7949 68.8076C64.1439 67.3916 63.4928 66.0407 62.8418 64.7549C62.207 63.4691 61.5967 62.3542 61.0107 61.4102C60.376 60.3848 59.7005 59.5059 58.9844 58.7734C58.2845 58.0247 57.373 57.4469 56.25 57.04C55.599 56.8122 54.9723 56.6576 54.3701 56.5762C53.7842 56.4785 53.125 56.4053 52.3926 56.3564C51.6602 56.3076 51.1068 56.2181 50.7324 56.0879C50.3743 55.9577 50.1953 55.7298 50.1953 55.4043C50.1953 55.0788 50.3499 54.8509 50.6592 54.7207C50.9684 54.5742 51.4648 54.501 52.1484 54.501C52.5065 54.501 52.8564 54.5091 53.1982 54.5254C53.54 54.5417 53.89 54.5579 54.248 54.5742C54.6061 54.5905 54.9805 54.6068 55.3711 54.623C55.778 54.6393 56.2174 54.6475 56.6895 54.6475C57.7799 54.6475 58.8704 54.5824 59.9609 54.4521C61.0677 54.3057 62.1257 54.1266 63.1348 53.915C64.1602 53.7035 65.1204 53.4756 66.0156 53.2314C66.9271 52.971 67.7409 52.735 68.457 52.5234C69.1732 52.3118 69.7673 52.141 70.2393 52.0107C70.7275 51.8643 71.0612 51.791 71.2402 51.791Z" fill="#FF6611"/>
</g>
<defs>
<clipPath id="clip0_1_3">
<rect width="100" height="100" fill="white"/>
</clipPath>
</defs>
</svg>
