<svg width="100" height="100" viewBox="0 0 100 100" fill="none" xmlns="http://www.w3.org/2000/svg">
<path d="M6.46875 54.125C5.44792 54.125 4.9375 53.5104 4.9375 52.2812V49.7188C4.9375 48.4896 5.44792 47.875 6.46875 47.875C7.57292 47.875 8.73958 47.3438 9.96875 46.2812C11.1979 45.1979 11.8125 42.7396 11.8125 38.9062V30C11.8125 26.5208 12.6146 24.1979 14.2188 23.0312C15.8229 21.8438 19.2708 21.25 24.5625 21.25C25.8125 21.25 26.4375 21.7708 26.4375 22.8125V25.9375C26.4375 26.9792 25.8125 27.5 24.5625 27.5C22.5417 27.5 21.3646 27.9896 21.0312 28.9688C20.7188 29.9479 20.5625 31.0938 20.5625 32.4062V40.375C20.5625 43.7917 19.8646 46.2812 18.4688 47.8438C17.0729 49.4062 15.2604 50.4479 13.0312 50.9688V51.0312C15.2604 51.5521 17.0729 52.5938 18.4688 54.1562C19.8646 55.7188 20.5625 58.2083 20.5625 61.625V69.5938C20.5625 70.9062 20.7188 72.0521 21.0312 73.0312C21.3646 74.0104 22.5417 74.5 24.5625 74.5C25.8125 74.5 26.4375 75.0208 26.4375 76.0625V79.1875C26.4375 80.2292 25.8125 80.75 24.5625 80.75C19.2708 80.75 15.8229 80.1562 14.2188 78.9688C12.6146 77.8021 11.8125 75.4792 11.8125 72V63.0938C11.8125 59.2604 11.1979 56.8125 9.96875 55.75C8.73958 54.6667 7.57292 54.125 6.46875 54.125ZM75.4062 80.75C74.1562 80.75 73.5312 80.2292 73.5312 79.1875V76.0625C73.5312 75.0208 74.1562 74.5 75.4062 74.5C77.4271 74.5 78.5938 74.0104 78.9062 73.0312C79.2396 72.0521 79.4062 70.9062 79.4062 69.5938V61.625C79.4062 58.2083 80.1042 55.7188 81.5 54.1562C82.8958 52.5938 84.7083 51.5521 86.9375 51.0312V50.9688C84.7083 50.4479 82.8958 49.4062 81.5 47.8438C80.1042 46.2812 79.4062 43.7917 79.4062 40.375V32.4062C79.4062 31.0938 79.2396 29.9479 78.9062 28.9688C78.5938 27.9896 77.4271 27.5 75.4062 27.5C74.1562 27.5 73.5312 26.9792 73.5312 25.9375V22.8125C73.5312 21.7708 74.1562 21.25 75.4062 21.25C80.6979 21.25 84.1458 21.8438 85.75 23.0312C87.3542 24.1979 88.1562 26.5208 88.1562 30V38.9062C88.1562 42.7396 88.7708 45.1979 90 46.2812C91.2292 47.3438 92.3958 47.875 93.5 47.875C94.5208 47.875 95.0312 48.4896 95.0312 49.7188V52.2812C95.0312 53.5104 94.5208 54.125 93.5 54.125C92.3958 54.125 91.2292 54.6667 90 55.75C88.7708 56.8125 88.1562 59.2604 88.1562 63.0938V72C88.1562 75.4792 87.3542 77.8021 85.75 78.9688C84.1458 80.1562 80.6979 80.75 75.4062 80.75Z" fill="#FF6611"/>
<path d="M31.8125 68C30.3125 68 29.8229 67.3125 30.3438 65.9375L45.6562 25.7188C46.3021 24.0312 47.2812 23.1875 48.5938 23.1875H52.9688C54.2812 23.1875 55.2604 24.0312 55.9062 25.7188L71.2188 65.9375C71.7396 67.3125 71.25 68 69.75 68H64.7812C63.4062 68 62.4479 67.2812 61.9062 65.8438L58.7188 57.4375H42.8438L39.6562 65.8438C39.1146 67.2812 38.1562 68 36.7812 68H31.8125ZM45.75 49.6875H55.8125L51.9688 39.75C51.5104 38.5833 51.2292 37.7396 51.125 37.2188C51.0417 36.6771 50.9479 35.8854 50.8438 34.8438H50.7188C50.6146 35.8854 50.5104 36.6771 50.4062 37.2188C50.3229 37.7396 50.0521 38.5833 49.5938 39.75L45.75 49.6875Z" fill="white"/>
</svg>
