<svg width="100" height="100" viewBox="0 0 100 100" fill="none" xmlns="http://www.w3.org/2000/svg">
<g clip-path="url(#clip0_1_3)">
<path d="M8.61523 89C6.27148 89 5.50651 87.9258 6.32031 85.7773L30.2461 22.9355C31.2552 20.2988 32.7852 18.9805 34.8359 18.9805H41.6719C43.7227 18.9805 45.2526 20.2988 46.2617 22.9355L70.1875 85.7773C71.0013 87.9258 70.2363 89 67.8926 89H60.1289C57.9805 89 56.4831 87.877 55.6367 85.6309L50.6562 72.4961H25.8516L20.8711 85.6309C20.0247 87.877 18.5273 89 16.3789 89H8.61523ZM30.3926 60.3867H46.1152L40.1094 44.8594C39.3932 43.0365 38.9538 41.7181 38.791 40.9043C38.6608 40.0579 38.5143 38.821 38.3516 37.1934H38.1562C37.9935 38.821 37.8307 40.0579 37.668 40.9043C37.5378 41.7181 37.1146 43.0365 36.3984 44.8594L30.3926 60.3867Z" fill="white"/>
<path d="M78.5445 89C76.2658 89 75.1265 87.7793 75.1265 85.3379V78.7949C75.1265 76.3535 76.2658 75.1328 78.5445 75.1328H85.9663C88.245 75.1328 89.3843 76.3535 89.3843 78.7949V85.3379C89.3843 87.7793 88.245 89 85.9663 89H78.5445Z" fill="#FF6611"/>
</g>
<defs>
<clipPath id="clip0_1_3">
<rect width="100" height="100" fill="white"/>
</clipPath>
</defs>
</svg>
